Coordinates
version=1
nRows=31
nColumns=17
inDegrees=yes

Units are S.I. units (second, meters, Newtons, ...)
If the header above contains a line with 'inDegrees', this indicates whether rotational values are in degrees (yes) or radians (no).

endheader
time	pelvis_tilt	pelvis_tx	pelvis_ty	hip_flexion_l	hip_flexion_r	knee_angle_l	knee_angle_r	ankle_angle_l	ankle_angle_r	lumbar_extension	FC_flexion	FC_adduction	FC_rotation	FC_tx	FC_ty	FC_tz
      1.43000000	     95.89656783	     -0.31653455	      1.03857172	     -5.11585534	      7.11603487	     -3.35290853	    -13.60930181	    -37.77344289	    -25.59159491	    -20.82034111	     85.88672164	     49.48199487	     88.34816221	      0.05556201	     -0.01536961	     -0.18733484
      1.44000000	     95.89976375	     -0.31651737	      1.03858981	     -5.12027408	      7.11212501	     -3.35551778	    -13.61306496	    -37.77370899	    -25.55833486	    -20.81572004	     85.91120965	     49.45199540	     88.37176895	      0.05565896	     -0.01516163	     -0.18729003
      1.45000000	     95.89418517	     -0.31652866	      1.03857352	     -5.11403032	      7.10736702	     -3.35297901	    -13.58287132	    -37.77563659	    -25.52515244	    -20.82414900	     85.92381444	     49.44391941	     88.37755512	      0.05563965	     -0.01514439	     -0.18726866
      1.46000000	     95.90202197	     -0.31652647	      1.03858085	     -5.12270938	      7.10665543	     -3.35671836	    -13.59279358	    -37.77606397	    -25.49040857	    -20.81507018	     85.94642637	     49.44775672	     88.42068700	      0.05572445	     -0.01498604	     -0.18719790
      1.47000000	     95.89850302	     -0.31652599	      1.03858920	     -5.11956967	      7.10535656	     -3.35516158	    -13.58252677	    -37.77563811	    -25.46283463	    -20.81969911	     85.96603533	     49.43934870	     88.44566349	      0.05578599	     -0.01489864	     -0.18717425
      1.48000000	     95.93615566	     -0.31654210	      1.03859326	     -5.16140575	      7.07064015	     -3.35775686	    -13.60323152	    -37.73460442	    -25.19348400	    -20.86216426	     85.75439812	     49.45116664	     88.48487802	      0.05556078	     -0.01532639	     -0.18717197
      1.49000000	     95.93582328	     -0.31654738	      1.03859183	     -5.15931340	      7.07010997	     -3.35709428	    -13.59506241	    -37.73537217	    -25.16437884	    -20.86071966	     85.78127398	     49.41890092	     88.51299080	      0.05564216	     -0.01528809	     -0.18732468
      1.50000000	     95.93152520	     -0.31654495	      1.03859411	     -5.15487297	      7.06693868	     -3.35566492	    -13.58239503	    -37.73654156	    -25.14276119	    -20.86312621	     85.80096390	     49.42584541	     88.53452417	      0.05570332	     -0.01519922	     -0.18732276
      1.51000000	     95.94303837	     -0.31652436	      1.03859526	     -5.15630838	      7.06115700	     -3.37469673	    -13.61174018	    -37.75588963	    -25.05451962	    -20.86967512	     85.82796818	     49.45293133	     88.51238460	      0.05582437	     -0.01516552	     -0.18718480
      1.52000000	     95.93907438	     -0.31652618	      1.03860404	     -5.15363967	      7.04735603	     -3.37297697	    -13.57254090	    -37.75639157	    -25.02373121	    -20.85985042	     85.83146862	     49.41193426	     88.52644872	      0.05574614	     -0.01519965	     -0.18726354
      1.53000000	     95.94327054	     -0.31652948	      1.03858726	     -5.15972142	      7.05007773	     -3.37134821	    -13.57597407	    -37.75536406	    -25.01958267	    -20.86363047	     85.82053887	     49.44023383	     88.57417160	      0.05586906	     -0.01503802	     -0.18717974
      1.54000000	     95.97631529	     -0.31653243	      1.03862556	     -5.18968999	      7.00606570	     -3.38547536	    -13.58331687	    -37.75250326	    -24.83388606	    -20.89308202	     85.73274883	     49.39802717	     88.57130564	      0.05579696	     -0.01528603	     -0.18727510
      1.55000000	     95.97534470	     -0.31654189	      1.03866202	     -5.19338175	      6.99993321	     -3.38568331	    -13.60342206	    -37.75215482	    -24.79600477	    -20.88605387	     85.75903814	     49.37937792	     88.60177521	      0.05604500	     -0.01507375	     -0.18719778
      1.56000000	     95.97614492	     -0.31656146	      1.03864955	     -5.19481509	      7.00954789	     -3.38148240	    -13.63099944	    -37.74906971	    -24.76022878	    -20.89491541	     85.78149254	     49.39429124	     88.61706879	      0.05616711	     -0.01498360	     -0.18702412
      1.57000000	     95.97216740	     -0.31652060	      1.03864941	     -5.19148683	      7.00740256	     -3.37939758	    -13.61582445	    -37.74816827	    -24.74100011	    -20.89721518	     85.79615082	     49.38620955	     88.63630024	      0.05620126	     -0.01488118	     -0.18697085
      1.58000000	     95.97669139	     -0.31653223	      1.03866214	     -5.19618176	      7.00458224	     -3.38115301	    -13.62544581	    -37.74719458	    -24.71175754	    -20.89163486	     85.80367546	     49.37491856	     88.65584886	      0.05628807	     -0.01481528	     -0.18696990
      1.59000000	     96.01898622	     -0.31655594	      1.03867924	     -5.22585635	      6.94378362	     -3.41581585	    -13.60512698	    -37.73578291	    -24.45548871	    -20.94233487	     85.51077312	     49.38100116	     88.74209075	      0.05597399	     -0.01530447	     -0.18695139
      1.60000000	     96.02659435	     -0.31647418	      1.03873107	     -5.23611458	      6.91473819	     -3.41966947	    -13.56955010	    -37.72640354	    -24.42994041	    -20.92473061	     85.51516772	     49.38356853	     88.76371135	      0.05590604	     -0.01520541	     -0.18693606
      1.61000000	     96.02841270	     -0.31649307	      1.03871829	     -5.24125190	      6.88260241	     -3.41469651	    -13.46863705	    -37.70514737	    -24.47448871	    -20.93051855	     85.47583471	     49.39974067	     88.85056761	      0.05567815	     -0.01518797	     -0.18689281
      1.62000000	     96.07394146	     -0.31651947	      1.03872523	     -5.28014946	      6.85327229	     -3.43481160	    -13.55958310	    -37.64434783	    -24.18387615	    -20.98584783	     85.30099525	     49.39928587	     88.88270699	      0.05576626	     -0.01547410	     -0.18685069
      1.63000000	     96.07506529	     -0.31652982	      1.03872560	     -5.28230844	      6.85805909	     -3.43440333	    -13.56647573	    -37.64144824	    -24.15369061	    -20.98371401	     85.31579782	     49.41776031	     88.90950013	      0.05580612	     -0.01544295	     -0.18682597
      1.64000000	     96.07131987	     -0.31651955	      1.03871676	     -5.28004363	      6.85971562	     -3.43222217	    -13.51648883	    -37.63914331	    -24.13982565	    -20.98696013	     85.32117030	     49.40970810	     88.92666494	      0.05550122	     -0.01558672	     -0.18681614
      1.65000000	     96.07414347	     -0.31653742	      1.03872963	     -5.28153508	      6.84405443	     -3.43469931	    -13.53949852	    -37.63876866	    -24.08563345	    -20.97318374	     85.34143390	     49.40943181	     88.96138225	      0.05588475	     -0.01530581	     -0.18673056
      1.66000000	     95.98472249	     -0.31657966	      1.03865613	     -5.20498867	      6.97870692	     -3.38240500	    -13.55524470	    -37.70641144	    -24.27011602	    -20.89640090	     85.55664023	     49.39478178	     88.98079282	      0.05604108	     -0.01501159	     -0.18664324
      1.67000000	     95.98121679	     -0.31657172	      1.03864703	     -5.20244755	      6.97766981	     -3.38097802	    -13.53708856	    -37.70619302	    -24.24601619	    -20.90011151	     85.57742823	     49.38553179	     89.00423357	      0.05612176	     -0.01486243	     -0.18653773
      1.68000000	     95.98355535	     -0.31658568	      1.03865499	     -5.20401131	      6.97200685	     -3.38355617	    -13.52783406	    -37.70739131	    -24.21234492	    -20.89549735	     85.60219492	     49.37035234	     89.02902013	      0.05619555	     -0.01475753	     -0.18640689
      1.69000000	     96.00241088	     -0.31660364	      1.03868849	     -5.20685191	      6.94262419	     -3.40990016	    -13.51316775	    -37.72892373	    -24.12309199	    -20.90395258	     85.62927254	     49.35313337	     89.01090655	      0.05623684	     -0.01479233	     -0.18627072
      1.70000000	     96.01304302	     -0.31657878	      1.03866876	     -5.22655126	      6.93956768	     -3.40416695	    -13.53331303	    -37.70794201	    -23.99906909	    -20.93346711	     85.64299704	     49.31638405	     88.98199996	      0.05625263	     -0.01484738	     -0.18614779
      1.71000000	     96.07495111	     -0.31662746	      1.03869953	     -5.29361585	      6.85413147	     -3.41090087	    -13.49340108	    -37.65571535	    -23.81632798	    -20.98827900	     85.44930881	     49.29848397	     89.06834943	      0.05604139	     -0.01508568	     -0.18609219
      1.72000000	     96.07651500	     -0.31661984	      1.03871376	     -5.29554016	      6.85591260	     -3.41313442	    -13.49407950	    -37.65532387	    -23.78141092	    -20.98368698	     85.47182489	     49.28530800	     89.11132737	      0.05612970	     -0.01496601	     -0.18602896
      1.73000000	     96.07511868	     -0.31661977	      1.03871546	     -5.29299597	      6.85536063	     -3.41335046	    -13.48597311	    -37.65624263	    -23.74836636	    -20.98709275	     85.49588681	     49.26376941	     89.14565867	      0.05622378	     -0.01483043	     -0.18592673
